HIERARCHY
ROOT Hips
{
  OFFSET 0.849866 78.6569 -0.536788
  CHANNELS 6 Xposition Yposition Zposition Zrotation Xrotation Yrotation
  JOINT Bip01_Pelvis
  {
    OFFSET 0 0 0
    CHANNELS 6 Xposition Yposition Zposition Zrotation Xrotation Yrotation
    JOINT BN_Tail_01
    {
      OFFSET -5.52397 -0.332285 0
      CHANNELS 6 Xposition Yposition Zposition Zrotation Xrotation Yrotation
      JOINT BN_Tail_02
      {
        OFFSET 6.48885 -2.032e-005 0
        CHANNELS 6 Xposition Yposition Zposition Zrotation Xrotation Yrotation
        JOINT BN_Tail_03
        {
          OFFSET 7.08759 1.016e-005 -0.00261112
          CHANNELS 6 Xposition Yposition Zposition Zrotation Xrotation Yrotation
          End Site
          {
            OFFSET 0 0 0
          }
        }
      }
    }
    JOINT Bip01_Spine
    {
      OFFSET 4.02227 0.398968 0
      CHANNELS 6 Xposition Yposition Zposition Zrotation Xrotation Yrotation
      JOINT BN_UpperArm_R_01
      {
        OFFSET 4.84413 -3.22857 -3.65581
        CHANNELS 6 Xposition Yposition Zposition Zrotation Xrotation Yrotation
        JOINT BN_Forearm_R_01
        {
          OFFSET 8.51614 0 0
          CHANNELS 6 Xposition Yposition Zposition Zrotation Xrotation Yrotation
          JOINT BN_hand_R_01
          {
            OFFSET 10.1924 0 0
            CHANNELS 6 Xposition Yposition Zposition Zrotation Xrotation Yrotation
            JOINT BN_Finger_R_02
            {
              OFFSET 14.5949 -1.43855 0.585079
              CHANNELS 6 Xposition Yposition Zposition Zrotation Xrotation Yrotation
              End Site
              {
                OFFSET 0 0 0
              }
            }
            JOINT BN_Finger_R_01
            {
              OFFSET 14.4623 0 0
              CHANNELS 6 Xposition Yposition Zposition Zrotation Xrotation Yrotation
              End Site
              {
                OFFSET 0 0 0
              }
            }
          }
        }
      }
      JOINT BN_UpperArm_L_01
      {
        OFFSET 4.84412 -3.22858 3.65557
        CHANNELS 6 Xposition Yposition Zposition Zrotation Xrotation Yrotation
        JOINT BN_Forearm_L_01
        {
          OFFSET 8.51611 0 0
          CHANNELS 6 Xposition Yposition Zposition Zrotation Xrotation Yrotation
          JOINT BN_hand_L_01
          {
            OFFSET 10.1924 0 0
            CHANNELS 6 Xposition Yposition Zposition Zrotation Xrotation Yrotation
            JOINT BN_Finger_L_01
            {
              OFFSET 14.4623 0 0
              CHANNELS 6 Xposition Yposition Zposition Zrotation Xrotation Yrotation
              End Site
              {
                OFFSET 0 0 0
              }
            }
            JOINT BN_Finger_L_02
            {
              OFFSET 14.5949 1.43855 0.585071
              CHANNELS 6 Xposition Yposition Zposition Zrotation Xrotation Yrotation
              End Site
              {
                OFFSET 0 0 0
              }
            }
          }
        }
      }
      JOINT Bip01_R_Thigh
      {
        OFFSET -4.03411 -0.254132 -3.45377
        CHANNELS 6 Xposition Yposition Zposition Zrotation Xrotation Yrotation
        JOINT Bip01_R_Calf
        {
          OFFSET 3.92618 0 0
          CHANNELS 6 Xposition Yposition Zposition Zrotation Xrotation Yrotation
          JOINT Bip01_R_HorseLink
          {
            OFFSET 6.12319 0 0
            CHANNELS 6 Xposition Yposition Zposition Zrotation Xrotation Yrotation
            JOINT Bip01_R_Foot
            {
              OFFSET 9.94776 0 0
              CHANNELS 6 Xposition Yposition Zposition Zrotation Xrotation Yrotation
              JOINT Bip01_R_Toe3
              {
                OFFSET 0.881252 -0.110953 0.0158496
                CHANNELS 6 Xposition Yposition Zposition Zrotation Xrotation Yrotation
                JOINT Bip01_R_Toe31
                {
                  OFFSET 2.32137 0 0
                  CHANNELS 6 Xposition Yposition Zposition Zrotation Xrotation Yrotation
                  JOINT Bip01_R_Toe32
                  {
                    OFFSET 1.63293 0 0
                    CHANNELS 6 Xposition Yposition Zposition Zrotation Xrotation Yrotation
                    JOINT Bip01_R_Toe3Nub
                    {
                      OFFSET 1.72131 0 0
                      CHANNELS 6 Xposition Yposition Zposition Zrotation Xrotation Yrotation
                      End Site
                      {
                        OFFSET 0 0 0
                      }
                    }
                  }
                }
              }
              JOINT Bip01_R_Toe2
              {
                OFFSET 0.994751 0.967285 -1.09428
                CHANNELS 6 Xposition Yposition Zposition Zrotation Xrotation Yrotation
                JOINT Bip01_R_Toe21
                {
                  OFFSET 2.20201 0 0
                  CHANNELS 6 Xposition Yposition Zposition Zrotation Xrotation Yrotation
                  JOINT Bip01_R_Toe22
                  {
                    OFFSET 1.84925 0 0
                    CHANNELS 6 Xposition Yposition Zposition Zrotation Xrotation Yrotation
                    JOINT Bip01_R_Toe2Nub
                    {
                      OFFSET 1.70976 0 0
                      CHANNELS 6 Xposition Yposition Zposition Zrotation Xrotation Yrotation
                      End Site
                      {
                        OFFSET 0 0 0
                      }
                    }
                  }
                }
              }
              JOINT Bip01_R_Toe1
              {
                OFFSET 1.3748 1.34027 -0.0712419
                CHANNELS 6 Xposition Yposition Zposition Zrotation Xrotation Yrotation
                JOINT Bip01_R_Toe11
                {
                  OFFSET 2.26122 0 0
                  CHANNELS 6 Xposition Yposition Zposition Zrotation Xrotation Yrotation
                  JOINT Bip01_R_Toe12
                  {
                    OFFSET 2.22215 0 0
                    CHANNELS 6 Xposition Yposition Zposition Zrotation Xrotation Yrotation
                    JOINT Bip01_R_Toe1Nub
                    {
                      OFFSET 1.61867 0 0
                      CHANNELS 6 Xposition Yposition Zposition Zrotation Xrotation Yrotation
                      End Site
                      {
                        OFFSET 0 0 0
                      }
                    }
                  }
                }
              }
              JOINT Bip01_R_Toe0
              {
                OFFSET 1.40695 0.687986 0.883783
                CHANNELS 6 Xposition Yposition Zposition Zrotation Xrotation Yrotation
                JOINT Bip01_R_Toe01
                {
                  OFFSET 2.26828 0 0
                  CHANNELS 6 Xposition Yposition Zposition Zrotation Xrotation Yrotation
                  JOINT Bip01_R_Toe02
                  {
                    OFFSET 2.09769 0 0
                    CHANNELS 6 Xposition Yposition Zposition Zrotation Xrotation Yrotation
                    JOINT Bip01_R_Toe0Nub
                    {
                      OFFSET 1.53753 0 0
                      CHANNELS 6 Xposition Yposition Zposition Zrotation Xrotation Yrotation
                      End Site
                      {
                        OFFSET 0 0 0
                      }
                    }
                  }
                }
              }
            }
          }
        }
      }
      JOINT Bip01_L_Thigh
      {
        OFFSET -4.03411 -0.254147 3.45377
        CHANNELS 6 Xposition Yposition Zposition Zrotation Xrotation Yrotation
        JOINT Bip01_L_Calf
        {
          OFFSET 3.92616 0 0
          CHANNELS 6 Xposition Yposition Zposition Zrotation Xrotation Yrotation
          JOINT Bip01_L_HorseLink
          {
            OFFSET 6.1232 0 0
            CHANNELS 6 Xposition Yposition Zposition Zrotation Xrotation Yrotation
            JOINT Bip01_L_Foot
            {
              OFFSET 9.94775 0 0
              CHANNELS 6 Xposition Yposition Zposition Zrotation Xrotation Yrotation
              JOINT Bip01_L_Toe3
              {
                OFFSET 0.881246 -0.110986 -0.0157582
                CHANNELS 6 Xposition Yposition Zposition Zrotation Xrotation Yrotation
                JOINT Bip01_L_Toe31
                {
                  OFFSET 2.32136 0 0
                  CHANNELS 6 Xposition Yposition Zposition Zrotation Xrotation Yrotation
                  JOINT Bip01_L_Toe32
                  {
                    OFFSET 1.63293 0 0
                    CHANNELS 6 Xposition Yposition Zposition Zrotation Xrotation Yrotation
                    JOINT Bip01_L_Toe3Nub
                    {
                      OFFSET 1.7213 0 0
                      CHANNELS 6 Xposition Yposition Zposition Zrotation Xrotation Yrotation
                      End Site
                      {
                        OFFSET 0 0 0
                      }
                    }
                  }
                }
              }
              JOINT Bip01_L_Toe2
              {
                OFFSET 0.994649 0.967162 1.09447
                CHANNELS 6 Xposition Yposition Zposition Zrotation Xrotation Yrotation
                JOINT Bip01_L_Toe21
                {
                  OFFSET 2.202 0 0
                  CHANNELS 6 Xposition Yposition Zposition Zrotation Xrotation Yrotation
                  JOINT Bip01_L_Toe22
                  {
                    OFFSET 1.84926 0 0
                    CHANNELS 6 Xposition Yposition Zposition Zrotation Xrotation Yrotation
                    JOINT Bip01_L_Toe2Nub
                    {
                      OFFSET 1.70976 0 0
                      CHANNELS 6 Xposition Yposition Zposition Zrotation Xrotation Yrotation
                      End Site
                      {
                        OFFSET 0 0 0
                      }
                    }
                  }
                }
              }
              JOINT Bip01_L_Toe1
              {
                OFFSET 1.37483 1.34021 0.0715086
                CHANNELS 6 Xposition Yposition Zposition Zrotation Xrotation Yrotation
                JOINT Bip01_L_Toe11
                {
                  OFFSET 2.26124 0 0
                  CHANNELS 6 Xposition Yposition Zposition Zrotation Xrotation Yrotation
                  JOINT Bip01_L_Toe12
                  {
                    OFFSET 2.22214 0 0
                    CHANNELS 6 Xposition Yposition Zposition Zrotation Xrotation Yrotation
                    JOINT Bip01_L_Toe1Nub
                    {
                      OFFSET 1.61867 0 0
                      CHANNELS 6 Xposition Yposition Zposition Zrotation Xrotation Yrotation
                      End Site
                      {
                        OFFSET 0 0 0
                      }
                    }
                  }
                }
              }
              JOINT Bip01_L_Toe0
              {
                OFFSET 1.40707 0.688009 -0.883564
                CHANNELS 6 Xposition Yposition Zposition Zrotation Xrotation Yrotation
                JOINT Bip01_L_Toe01
                {
                  OFFSET 2.26828 0 0
                  CHANNELS 6 Xposition Yposition Zposition Zrotation Xrotation Yrotation
                  JOINT Bip01_L_Toe02
                  {
                    OFFSET 2.0977 0 0
                    CHANNELS 6 Xposition Yposition Zposition Zrotation Xrotation Yrotation
                    JOINT Bip01_L_Toe0Nub
                    {
                      OFFSET 1.53752 0 0
                      CHANNELS 6 Xposition Yposition Zposition Zrotation Xrotation Yrotation
                      End Site
                      {
                        OFFSET 0 0 0
                      }
                    }
                  }
                }
              }
            }
          }
        }
      }
      JOINT Bip01_Spine1
      {
        OFFSET 4.90674 -0.00437896 0
        CHANNELS 6 Xposition Yposition Zposition Zrotation Xrotation Yrotation
        JOINT Bip01_Neck
        {
          OFFSET 5.56447 -1.28357 0
          CHANNELS 6 Xposition Yposition Zposition Zrotation Xrotation Yrotation
          JOINT Bip01_Neck1
          {
            OFFSET 2.79308 -0.00219964 0
            CHANNELS 6 Xposition Yposition Zposition Zrotation Xrotation Yrotation
            JOINT Bip01_Head
            {
              OFFSET 2.79272 0 0
              CHANNELS 6 Xposition Yposition Zposition Zrotation Xrotation Yrotation
              JOINT BN_Mouth_01
              {
                OFFSET 4.19089 0.0665938 0
                CHANNELS 6 Xposition Yposition Zposition Zrotation Xrotation Yrotation
                End Site
                {
                  OFFSET 0 0 0
                }
              }
              JOINT Bip01_HeadNub
              {
                OFFSET 6.95118 0 0
                CHANNELS 6 Xposition Yposition Zposition Zrotation Xrotation Yrotation
                End Site
                {
                  OFFSET 0 0 0
                }
              }
            }
          }
        }
      }
    }
  }
}
MOTION
Frames:	3
Frame Time:	0.0333333
0.849867 96.139 -1.96268e-007 178.094 -90 -90 0 0 0 -89.9987 6.19063 -89.9989 -5.52396 -0.332276 1.16415e-010 -4.43852 0.00415039 179.961 6.48885 -1.42109e-013 -0.00446786 7.5103 1.7068e-009 4.43208e-010 7.08759 -7.6294e-006 -0.00440436 13.5622 -0.00683513 0.0343028 4.02166 0.398873 1.16415e-010 -1.03168 1.64601e-011 -5.16515e-011 4.84413 -3.22852 -3.65581 -84.4331 -0.532651 103.654 8.51611 3.57629e-007 3.8147e-006 16.4964 -2.31981 23.7628 10.1924 -7.62941e-006 1.90735e-006 -20.0617 -16.2516 67.3908 14.5949 -1.43856 0.585077 -47.8262 -3.81883 15.7918 14.4623 -1.06582e-014 -1.90735e-006 -6.27132 -2.60478 16.2455 4.84413 -3.22854 3.65557 96.5824 -0.395966 -77.4201 8.51612 2.38419e-007 -1.14441e-005 -16.696 0.649387 23.9062 10.1924 5.15144e-013 1.90735e-006 19.1096 18.1025 67.1146 14.4624 9.53676e-007 1.06581e-014 6.2679 2.65389 16.2466 14.595 1.43855 0.585071 48.1809 4.74433 15.7371 -4.01377 -0.469957 -3.45377 -107.092 1.01299 -177.041 3.92617 7.10544e-015 -4.44089e-016 -85.2608 -1.37002e-006 -1.73984e-005 6.1232 0 -2.66454e-015 140.042 -7.48086e-006 -6.32123e-006 9.94776 -1.18235e-011 -0.00138903 -95.5734 15.4173 2.24653 0.881226 -0.110997 0.0158143 163.642 -4.49573 -179.31 2.32136 7.62946e-006 -4.76837e-007 43.334 -0.00535622 -0.00567545 1.63293 7.62949e-006 -4.76837e-007 -116.837 -0.0026651 -0.00133438 1.7213 9.53694e-007 8.88179e-016 2.13565e-008 3.21326e-006 9.45452e-006 0.994697 0.96708 -1.09449 38.2736 -23.1896 15.1749 2.202 -4.76843e-007 1.90735e-006 17.887 -0.0259561 -0.060972 1.84925 -3.81475e-006 1.90735e-006 -62.8698 -0.00568793 0.000531418 1.70976 3.57635e-007 -5.32907e-015 -1.39149e-007 1.21457e-007 1.94056e-008 1.37481 1.34021 -0.0715313 43.4158 1.95828 -1.85 2.26124 7.74869e-007 -1.33227e-015 9.9549 -0.0056753 -0.0323907 2.22213 0 -2.13163e-014 -82.2314 -1.07471e-005 1.46324e-006 1.61867 7.10556e-015 -4.76837e-007 1.92771e-007 1.19245e-005 1.23267e-007 1.407 0.688078 0.88359 51.2754 21.273 -24.346 2.26825 0 -1.90735e-006 12.237 -0.00613227 -0.0116876 2.0977 -3.81475e-006 3.8147e-006 -84.758 -0.00256881 0.000246708 1.53753 -3.81478e-006 -3.8147e-006 -1.06408e-006 1.09717e-005 8.47098e-007 -4.01378 -0.469975 3.45377 -112.18 -0.598741 176.146 3.92616 -3.8147e-006 -1.78814e-007 -101.017 -1.00292e-005 -1.2504e-006 6.1232 -7.62942e-006 2.66453e-015 129.184 -2.01803e-005 3.0867e-006 9.94776 0 1.19209e-007 -61.8809 -15.8771 1.75179 0.88125 -0.11097 -0.0158293 139.078 4.4114 -178.723 2.32135 -3.81474e-006 -9.53674e-007 21.6571 0.00404455 0.0101873 1.63294 1.4211e-014 1.77636e-015 -61.5872 -7.88464e-006 5.79052e-006 1.7213 7.62954e-006 1.9007e-013 179.96 0.00026285 0.000809704 0.994736 0.967277 1.09431 35.8043 23.7813 -14.1931 2.20201 0 -8.88178e-016 38.9819 0.00207104 0.00256285 1.84926 -7.62949e-006 6.35047e-014 -83.0977 -4.53691e-007 5.43843e-006 1.70975 1.90739e-006 9.53674e-007 179.96 1.85258e-005 -0.000882046 1.37481 1.34025 0.07128 40.3258 -2.0544 1.74184 2.26124 0 2.22045e-015 30.421 -0.00560024 -0.00953177 2.22213 -7.62949e-006 -4.76837e-007 -82.2314 8.91308e-007 9.38996e-006 1.61867 -9.53694e-007 2.22045e-015 -179.96 -0.000453195 -0.000759926 1.40699 0.687967 -0.883747 50.2045 -21.7173 23.9519 2.26829 -1.90737e-006 8.88177e-014 28.5839 -0.00892847 -0.0164007 2.09769 1.27899e-013 5.72204e-006 -101.89 -5.36433e-006 -1.04359e-007 1.53752 -9.53697e-007 -5.72204e-006 -179.96 -0.00011473 -0.000639107 4.90624 -0.00436402 1.06902e-015 -10.868 9.8383e-006 1.88883e-006 5.56442 -1.28356 1.50633e-012 -7.21592 -1.25828e-006 9.93853e-006 2.79239 -0.00223541 4.87544e-015 -4.33052 9.23293e-006 1.07458e-005 2.79272 -2.28882e-005 -1.16415e-010 34.8965 8.21641e-006 -5.73114e-006 4.19088 0.0666047 1.10116e-014 -158.477 -0.0620118 -179.988 6.95117 -1.52588e-005 1.16415e-010 -2.72471e-009 -5.82377e-019 -5.21102e-011 
0.849867 95.8924 -1.85966e-007 177.88 -90 -90 0 0 0 -89.9987 6.19063 -89.9989 -5.52396 -0.332276 1.16415e-010 -3.76664 0.00369263 179.96 6.48885 -7.10543e-014 -0.00446786 6.59907 1.58872e-009 4.29761e-010 7.08759 -7.6294e-006 -0.00440436 15.1892 -0.00585842 0.034483 4.02166 0.398873 1.16415e-010 -1.21477 1.76836e-011 -5.16155e-011 4.84413 -3.22852 -3.65581 -84.0098 -0.21268 99.4619 8.51611 3.57629e-007 3.8147e-006 15.8259 -2.46817 21.5417 10.1924 -7.62941e-006 1.90735e-006 -18.0096 -16.271 70.5061 14.5949 -1.43856 0.585077 -48.3333 -4.43327 22.1748 14.4623 -1.06582e-014 -1.90735e-006 -6.39303 -2.98415 20.5334 4.84413 -3.22854 3.65557 96.9573 -0.147562 -81.6061 8.51612 2.38419e-007 -1.14441e-005 -15.9987 0.784359 21.7043 10.1924 5.82646e-013 1.90735e-006 16.7309 17.8795 70.7314 14.4624 9.53676e-007 7.10542e-015 6.38934 3.01391 20.5391 14.595 1.43855 0.585071 48.5008 5.01218 22.1477 -4.0121 -0.484059 -3.45377 -106.46 1.02456 -177.14 3.92617 -2.84217e-014 -4.44089e-016 -85.1927 -1.38913e-006 -1.73855e-005 6.1232 2.84218e-014 -2.22045e-015 141.158 -7.6139e-006 -6.1706e-006 9.94776 -1.1923e-011 -0.00138903 -95.9786 15.3634 2.21837 0.881226 -0.110997 0.0158143 163.391 -4.48956 -179.354 2.32136 7.62946e-006 -4.76837e-007 44.147 0.0119832 0.0123469 1.63293 7.62949e-006 -4.76837e-007 -117.415 0.00539247 0.00281104 1.7213 9.53694e-007 -1.77636e-015 2.13565e-008 3.21326e-006 9.45452e-006 0.994697 0.96708 -1.09449 38.2998 -23.1822 15.1863 2.202 -4.76843e-007 1.90735e-006 17.9728 -0.0233666 -0.0526691 1.84925 -3.81475e-006 1.90735e-006 -63.9178 -0.00913118 0.0021085 1.70976 3.57635e-007 -8.88178e-016 -1.39149e-007 1.21457e-007 1.94056e-008 1.37481 1.34021 -0.0715313 43.6388 1.95019 -1.85853 2.26124 7.74869e-007 -8.88179e-016 10.0695 -0.00594549 -0.033536 2.22213 0 -2.13163e-014 -83.9098 4.35105e-005 -4.6021e-006 1.61867 2.13167e-014 -4.76837e-007 1.92771e-007 1.19245e-005 1.23267e-007 1.407 0.688078 0.88359 51.4929 21.181 -24.4248 2.26825 0 -1.90735e-006 12.1759 -0.00346333 0.000617337 2.0977 -3.81475e-006 3.8147e-006 -85.702 0.00775771 -0.000572014 1.53753 -3.81478e-006 -3.8147e-006 -1.06406e-006 1.09717e-005 8.47079e-007 -4.0121 -0.484066 3.45377 -111.612 -0.608533 176.025 3.92616 -3.8147e-006 -1.78814e-007 -100.753 -1.00358e-005 -1.19853e-006 6.1232 -7.62942e-006 1.33227e-015 128.957 -2.02063e-005 3.00873e-006 9.94776 -1.42109e-014 1.19209e-007 -60.6817 -15.9068 2.09212 0.88125 -0.11097 -0.0158293 138.149 4.37729 -178.659 2.32135 -3.81474e-006 -9.53674e-007 21.5037 0.000183463 0.000467426 1.63294 1.4211e-014 1.77636e-015 -62.2911 -1.47564e-005 9.25833e-006 1.7213 7.62954e-006 1.91847e-013 179.96 0.00026285 0.000809704 0.994736 0.967277 1.09431 35.8043 23.7813 -14.1931 2.20201 1.4211e-014 0 39.7684 -0.000381122 -0.00045441 1.84926 -7.6295e-006 6.70574e-014 -83.5062 -5.01148e-007 5.41232e-006 1.70975 1.90739e-006 9.53674e-007 179.96 1.85258e-005 -0.000882046 1.37481 1.34025 0.07128 40.3258 -2.05439 1.74184 2.26124 7.1055e-015 3.9968e-015 30.9813 -0.000335069 -0.0005525 2.22213 -7.62949e-006 -4.76837e-007 -83.9378 -2.76225e-005 1.24752e-005 1.61867 -9.53694e-007 1.33227e-015 -179.96 -0.000453195 -0.000759926 1.40699 0.687967 -0.883747 50.2045 -21.7173 23.9519 2.26829 -1.90737e-006 8.79296e-014 29.0143 8.36475e-006 1.66056e-006 2.09769 1.13688e-013 5.72204e-006 -103.491 -0.000126724 -2.94386e-005 1.53752 -9.53697e-007 -5.72204e-006 -179.96 -0.00011473 -0.000639107 4.90624 -0.00436402 1.15012e-015 -10.7266 9.84292e-006 1.86456e-006 5.56442 -1.28356 1.51238e-012 -6.9287 -1.20845e-006 9.94471e-006 2.79239 -0.00223541 4.81776e-015 -5.37519 9.03548e-006 1.09123e-005 2.79272 -2.28882e-005 -1.16415e-010 34.7883 8.22722e-006 -5.7156e-006 4.19088 0.0666047 7.94286e-015 -157.902 -0.0631867 -179.988 6.95117 -1.52588e-005 1.16415e-010 -2.72471e-009 -1.94126e-019 -5.21102e-011 
0.849867 95.6696 -1.76662e-007 177.706 -90 -90 0 0 0 -89.9987 6.19063 -89.9989 -5.52396 -0.332276 1.16415e-010 -3.03842 0.00318909 179.96 6.48885 -5.68435e-014 -0.00446786 5.16006 1.38287e-009 4.19633e-010 7.08759 -7.6294e-006 -0.00440436 15.7518 -0.00551952 0.0345389 4.02166 0.398873 1.16415e-010 -1.33944 1.84559e-011 -5.15913e-011 4.84413 -3.22852 -3.65581 -83.6321 -0.0351178 95.4562 8.51611 3.57629e-007 3.8147e-006 15.7095 -2.53192 19.8755 10.1924 -7.62941e-006 1.90735e-006 -17.2575 -16.2352 71.5709 14.5949 -1.43856 0.585077 -48.6362 -5.20122 27.3386 14.4623 0 -1.90735e-006 -6.48416 -3.36343 24.7388 4.84413 -3.22854 3.65557 97.3083 -0.00899415 -85.6028 8.51612 2.38419e-007 -1.14441e-005 -15.767 0.924424 20.0457 10.1924 6.63026e-013 1.90735e-006 15.8667 17.7266 71.9795 14.4624 9.53676e-007 5.32907e-015 6.48161 3.37428 24.749 14.595 1.43855 0.585071 48.6364 5.21891 27.3427 -4.01113 -0.49328 -3.45377 -106.012 1.04313 -177.166 3.92617 1.42109e-014 0 -85.0281 -1.43793e-006 -1.73764e-005 6.1232 4.26327e-014 -8.88179e-016 141.767 -7.68378e-006 -6.08727e-006 9.94776 -1.18519e-011 -0.00138903 -96.3846 15.3533 2.22346 0.881226 -0.110997 0.0158143 163.328 -4.52228 -179.361 2.32136 7.62946e-006 -4.76837e-007 44.4274 0.0332583 0.0339311 1.63293 7.62949e-006 -4.76837e-007 -117.602 0.0158909 0.00832233 1.7213 9.53694e-007 0 2.13566e-008 3.21326e-006 9.45452e-006 0.994697 0.96708 -1.09449 38.3254 -23.175 15.1974 2.202 -4.76843e-007 1.90735e-006 18.0569 -0.0208018 -0.0445305 1.84925 -3.81475e-006 1.90735e-006 -64.3223 0.00471044 -0.00461793 1.70976 3.57635e-007 -1.77636e-015 -1.39149e-007 1.21457e-007 1.94056e-008 1.37481 1.34021 -0.0715313 43.7134 1.94809 -1.86073 2.26124 7.74869e-007 -1.77636e-015 10.1819 -0.00621896 -0.0346806 2.22213 7.10551e-015 -2.22045e-014 -84.4931 0.00376918 -0.000363331 1.61867 0 -4.76837e-007 1.92771e-007 1.19245e-005 1.23267e-007 1.407 0.688078 0.88359 51.5659 21.1515 -24.4499 2.26825 7.10552e-015 -1.90735e-006 12.2247 -0.00617022 -0.0118758 2.0977 -3.81475e-006 3.8147e-006 -86.0189 0.0153102 -0.00105451 1.53753 -3.81478e-006 -3.8147e-006 -1.06406e-006 1.09717e-005 8.47079e-007 -4.01099 -0.492144 3.45377 -111.316 -0.611631 175.953 3.92616 -3.8147e-006 -1.78814e-007 -100.666 -1.00382e-005 -1.17944e-006 6.1232 -7.62942e-006 0 128.716 -2.02277e-005 2.92581e-006 9.94776 0 1.19209e-007 -60.052 -15.9257 2.23939 0.88125 -0.11097 -0.0158293 137.837 4.355 -178.643 2.32135 -3.81474e-006 -9.53674e-007 21.4649 0.0187939 0.0477982 1.63294 1.4211e-014 4.44089e-015 -62.5299 -0.00161124 0.000839184 1.7213 7.62954e-006 1.90958e-013 179.96 0.00026285 0.000809704 0.994737 0.967277 1.09431 35.8043 23.7813 -14.1931 2.20201 -1.4211e-014 0 40.0521 -0.0384626 -0.0457497 1.84926 -7.6295e-006 6.4837e-014 -83.6409 -4.94955e-007 5.41004e-006 1.70975 1.90739e-006 9.53674e-007 179.96 1.85258e-005 -0.000882046 1.37481 1.34025 0.07128 40.3258 -2.05439 1.74184 2.26124 0 2.22045e-015 31.161 -0.0342939 -0.056707 2.22213 -7.62949e-006 -4.76837e-007 -84.5073 -0.00281134 0.000279893 1.61867 -9.53694e-007 2.22045e-015 -179.96 -0.000453195 -0.000759926 1.40699 0.687967 -0.883747 50.2045 -21.7173 23.9519 2.26829 -1.90737e-006 9.23705e-014 29.0895 1.23653e-005 8.93585e-006 2.09769 9.94773e-014 5.72204e-006 -104.024 -0.0133658 -0.00333753 1.53752 -9.53697e-007 -5.72204e-006 -179.96 -0.00011473 -0.000639107 4.90624 -0.00436402 1.20043e-015 -10.6432 9.84563e-006 1.85022e-006 5.56442 -1.28356 1.51778e-012 -6.58528 -1.14882e-006 9.95178e-006 2.79239 -0.00223541 4.7462e-015 -6.24202 8.86937e-006 1.10477e-005 2.79272 -2.28882e-005 -1.16415e-010 34.5924 8.24672e-006 -5.68744e-006 4.19088 0.0666047 5.19029e-015 -157.977 -0.0568238 -179.989 6.95117 -1.52588e-005 1.16415e-010 -2.72471e-009 1.94126e-019 -5.21102e-011 
